HIERARCHY
ROOT Hips
{
	OFFSET -3.958830 18.904000 13.208200
	CHANNELS 6 Xposition Yposition Zposition Zrotation Yrotation Xrotation 
	JOINT LHipJoint
	{
		OFFSET 0.000000 0.000000 0.000000
		CHANNELS 3 Zrotation Yrotation Xrotation
		JOINT LeftUpLeg
		{
			OFFSET 1.800000 -1.400000 0.085000
			CHANNELS 3 Zrotation Yrotation Xrotation
			JOINT LeftLeg
			{
				OFFSET 2.215000 -6.000000 0.000000
				CHANNELS 3 Zrotation Yrotation Xrotation
				JOINT LeftFoot
				{
					OFFSET 2.500000 -6.900000 0.000000
					CHANNELS 3 Zrotation Yrotation Xrotation
					JOINT LeftToeBase
					{
						OFFSET 0.200000 -0.500000 1.950000
						CHANNELS 3 Zrotation Yrotation Xrotation
						End Site
						{
							OFFSET 0.000000 0.000000 0.000000
						}
					}
				}
			}
		}
	}
	JOINT RHipJoint
	{
		OFFSET 0.000000 0.000000 0.000000
		CHANNELS 3 Zrotation Yrotation Xrotation
		JOINT RightUpLeg
		{
			OFFSET -1.800000 -1.400000 0.085000
			CHANNELS 3 Zrotation Yrotation Xrotation
			JOINT RightLeg
			{
				OFFSET -2.215000 -6.000000 0.000000
				CHANNELS 3 Zrotation Yrotation Xrotation
				JOINT RightFoot
				{
					OFFSET -2.500000 -6.900000 0.000000
					CHANNELS 3 Zrotation Yrotation Xrotation
					JOINT RightToeBase
					{
						OFFSET -0.200000 -0.500000 1.950000
						CHANNELS 3 Zrotation Yrotation Xrotation
						End Site
						{
							OFFSET 0.000000 0.000000 0.000000
						}
					}
				}
			}
		}
	}
	JOINT LowerBack
	{
		OFFSET 0.000000 0.000000 0.000000
		CHANNELS 3 Zrotation Yrotation Xrotation
		JOINT Spine
		{
			OFFSET -0.087000 1.940000 -0.288900
			CHANNELS 3 Zrotation Yrotation Xrotation
			JOINT Spine1
			{
				OFFSET 0.000000 1.950000 0.060000
				CHANNELS 3 Zrotation Yrotation Xrotation
				JOINT Neck
				{
					OFFSET 0.000000 0.000000 0.000000
					CHANNELS 3 Zrotation Yrotation Xrotation
					JOINT Neck1
					{
						OFFSET 0.000000 1.600000 0.340000
						CHANNELS 3 Zrotation Yrotation Xrotation
						JOINT Head
						{
							OFFSET 0.000000 1.667000 -0.240000
							CHANNELS 3 Zrotation Yrotation Xrotation
							End Site
							{
								OFFSET 0.000000 0.000000 0.000000
							}
						}
					}
				}
				JOINT LeftShoulder
				{
					OFFSET 0.000000 0.000000 0.000000
					CHANNELS 3 Zrotation Yrotation Xrotation
					JOINT LeftArm
					{
						OFFSET 2.700000 1.550000 -0.730000
						CHANNELS 3 Zrotation Yrotation Xrotation
						JOINT LeftForeArm
						{
							OFFSET 5.450000 0.000000 0.000000
							CHANNELS 3 Zrotation Yrotation Xrotation
							JOINT LeftHand
							{
								OFFSET 3.450000 0.000000 0.000000
								CHANNELS 3 Zrotation Yrotation Xrotation
								JOINT LeftHandIndex1
								{
									OFFSET 0.750000 0.000000 0.000000
									CHANNELS 3 Zrotation Yrotation Xrotation
									End Site
									{
										OFFSET 0.000000 0.000000 0.000000
									}
								}
							}
						}
					}
				}
				JOINT RightShoulder
				{
					OFFSET 0.000000 0.000000 0.000000
					CHANNELS 3 Zrotation Yrotation Xrotation
					JOINT RightArm
					{
						OFFSET -2.700000 1.550000 -0.730000
						CHANNELS 3 Zrotation Yrotation Xrotation
						JOINT RightForeArm
						{
							OFFSET -5.450000 0.000000 0.000000
							CHANNELS 3 Zrotation Yrotation Xrotation
							JOINT RightHand
							{
								OFFSET -3.450000 0.000000 0.000000
								CHANNELS 3 Zrotation Yrotation Xrotation
								JOINT RightHandIndex1
								{
									OFFSET -0.750000 0.000000 0.000000
									CHANNELS 3 Zrotation Yrotation Xrotation
									End Site
									{
										OFFSET 0.000000 0.000000 0.000000
									}
								}
							}
						}
					}
				}
			}
		}
	}
}
MOTION
Frames: 8
Frame Time: 0.016667
-16.656380 17.666270 6.210020 -166.362804 60.013705 -167.196824 -16.717455 10.817926 7.287862 1.316230 -18.433936 -66.107161 12.993775 1.968784 41.153784 10.264204 -3.766414 5.633510 7.559630 8.295810 3.028370 17.470367 -6.638881 2.954813 -11.437052 6.979194 -12.583186 41.795477 -30.126204 48.094934 -3.911726 -6.051385 9.022745 4.903420 -10.566860 -5.658840 -2.440221 -7.499786 -9.492900 6.846611 -5.539628 110.150959 6.817898 3.863599 -64.869155 17.306159 -14.927995 -30.758985 -52.268664 20.240491 -16.871961 22.671450 1.492680 -11.793700 58.560514 42.241908 12.372399 -89.140214 19.301670 -23.065644 18.373306 -13.516246 5.838241 -2.654854 7.847134 -5.943830 -2.569490 -1.732220 -0.499250 -67.677926 -27.037348 10.147662 67.543798 13.241107 -6.915872 9.830897 21.533540 8.475686 -5.712781 -9.146365 7.663940 -3.612110 -4.390540 -4.869830 
-16.510290 17.642940 6.049680 -163.713004 59.901628 -162.203535 -17.121173 10.842671 7.596492 3.424144 -18.631369 -70.098642 13.765686 1.429962 41.357756 10.646001 -3.826390 5.750560 7.776300 8.385970 3.387910 17.160801 -6.259375 2.795220 -9.599203 6.993823 -13.473934 40.158852 -29.105791 48.599087 -4.039473 -5.937471 8.892813 4.781660 -10.601730 -5.356490 -2.056213 -8.973320 -9.618033 7.168233 -5.487874 107.023736 9.779761 6.515346 -65.978873 17.975426 -15.120605 -31.084693 -51.095184 22.118340 -14.966438 22.260540 6.150620 -8.951730 55.729802 42.009055 13.377299 -87.438158 27.345898 -29.343095 15.183332 -18.424134 6.471944 -2.360763 7.592887 -5.869200 -2.571480 -1.478860 -0.459410 -66.581317 -23.954426 11.636881 61.680981 17.590454 -4.800419 10.782632 21.144979 8.401958 -5.202531 -9.184749 7.826180 -3.831630 -4.701360 -4.731350 
-16.148050 17.647010 5.776150 -163.383852 58.470820 -152.659957 -17.495928 9.909098 8.535013 7.633968 -19.938881 -79.866551 12.003342 1.835451 40.008546 11.657673 -5.077583 6.110238 8.475530 9.126920 4.317420 16.910569 -6.151771 2.774105 -8.144639 6.727189 -19.328904 39.054402 -26.607286 46.987551 -4.251821 -5.240666 8.752506 4.775180 -11.062490 -5.081520 -2.105022 -9.151754 -9.790634 6.885287 -7.111769 93.642458 4.400099 11.380330 -71.650428 22.011839 -15.738073 -33.753670 -52.667300 19.381579 -3.697785 24.905420 8.263320 -5.035660 52.960657 38.860744 10.029466 -82.636926 24.689797 -31.494429 25.843285 -8.898954 6.996289 -2.233484 7.099178 -5.773920 -2.843990 -0.763150 -0.353160 -66.755139 -16.478086 14.047849 58.466929 4.098030 -11.830426 18.385331 22.923531 9.212895 -4.549656 -9.766573 8.358140 -4.357590 -5.665820 -4.300510 
-15.845600 17.681530 5.510650 -162.668447 56.561087 -146.956349 -17.725371 9.708296 9.021585 10.275198 -19.787951 -85.098558 9.552506 2.732537 38.590823 12.231920 -5.790856 6.251869 8.882750 9.454880 4.895170 16.719980 -6.128171 2.728185 -5.785540 6.894215 -21.274619 36.305629 -23.743472 46.589334 -4.340077 -4.462847 8.835858 4.739780 -11.431850 -4.896370 -1.800318 -9.961907 -9.811463 7.632357 -10.389109 81.743179 4.735269 15.490458 -71.987805 23.359570 -15.054827 -37.119026 -54.154625 20.133199 8.040081 24.943260 13.124280 -3.961730 52.703006 38.398738 11.318445 -80.243773 30.611374 -34.912286 29.196604 -9.836103 7.643740 -1.963414 6.978821 -5.682909 -3.017800 -0.281250 -0.281400 -65.951989 -14.118241 16.199591 53.391311 3.942363 -10.952762 19.521678 23.432196 9.363781 -4.093738 -9.962015 8.666810 -4.650110 -6.187160 -4.161510 
-15.509650 17.748420 5.227080 -161.092834 55.142776 -140.396772 -18.104855 9.870148 9.412655 11.162378 -19.300427 -89.181019 9.040392 2.905362 34.763665 12.559725 -7.013779 6.344208 9.428040 9.940110 5.513330 16.358643 -5.997918 2.743412 -1.590569 7.538458 -23.812126 30.824880 -19.622417 48.500132 -4.311883 -3.626826 9.026785 4.879130 -11.871690 -4.878600 -1.094758 -11.951852 -9.949919 9.798754 -11.853062 68.633480 4.993759 20.013796 -70.752603 23.626240 -14.321945 -40.327345 -50.986681 19.489678 21.224023 20.476100 21.358470 1.144410 52.823423 37.986247 12.730747 -76.608124 38.967537 -37.446285 26.251467 -13.539301 8.055299 -1.484649 7.032687 -5.614740 -3.196870 0.103970 -0.228100 -64.072090 -11.596566 18.192741 47.004138 2.446366 -9.428081 20.180434 25.283141 9.709907 -3.602102 -10.065093 8.979960 -4.959860 -6.698440 -4.102350 
-15.140540 17.806290 4.984970 -163.022630 53.220474 -139.405825 -18.113236 10.252659 9.624068 11.257768 -18.852694 -90.324749 4.924920 4.701078 32.642548 12.531712 -7.731355 6.434655 9.751240 10.311490 5.899740 16.270037 -6.177011 2.743833 1.098870 7.180990 -23.884236 26.045027 -16.180030 49.621134 -4.134531 -2.685839 9.630332 5.177180 -12.230410 -5.452000 -0.613240 -12.501805 -10.164363 9.581560 -13.633580 55.165096 5.839756 21.625270 -69.753074 19.995884 -11.544941 -43.119070 -39.968281 16.658115 45.586381 12.597880 30.225060 3.585940 55.601556 32.889956 14.870143 -74.163847 49.592586 -39.747826 20.046389 -19.621850 9.197892 -0.847609 6.835489 -5.533080 -3.365720 0.202160 -0.166580 -60.599418 -7.085574 19.133902 42.028104 -0.303904 -8.036579 22.175104 23.956840 9.270537 -3.178286 -9.273264 8.972250 -4.804480 -7.006220 -4.281570 
-14.861680 17.871400 4.694340 -161.380448 50.151736 -139.187610 -18.253977 11.005661 9.712342 9.817571 -18.881268 -89.294252 5.368641 4.707018 33.690610 12.245365 -7.548553 6.294967 9.843950 10.342250 6.012400 16.054423 -6.170068 2.646750 5.313301 5.463254 -20.160426 22.962281 -13.826251 49.976569 -3.945678 -2.213255 9.946531 5.294890 -12.353730 -5.632000 0.231816 -14.069556 -10.605605 9.110952 -13.808118 50.333270 3.555842 25.058846 -68.681088 10.683272 -5.662542 -43.525505 -15.081984 2.476709 67.311648 -4.960030 40.086710 -1.487640 60.685344 31.207313 11.047054 -62.321456 58.759230 -35.752113 3.997351 -18.500627 10.290769 -0.388456 6.448421 -5.525900 -3.325580 0.131660 -0.207600 -54.556379 -4.940320 20.126320 36.116998 -1.688949 -4.400032 22.005515 20.862047 8.149947 -2.720702 -8.383912 8.915010 -4.745310 -6.950240 -4.466110 
-14.629970 17.958950 4.425310 -158.431697 46.020775 -141.525212 -18.526629 12.137870 9.177983 9.465093 -16.590229 -84.883877 2.308627 6.694304 36.207486 11.875895 -6.576517 6.024639 9.493090 10.223170 5.437200 15.759438 -5.996822 2.283418 10.982053 1.179464 -14.326325 18.275388 -11.669279 51.265137 -3.673841 -1.795247 10.562934 5.452550 -12.377740 -6.163950 1.367013 -16.323726 -10.688774 10.760829 -9.556189 46.749462 6.492226 29.224006 -64.999754 4.022985 -5.210593 -46.246171 -4.021558 -9.918253 88.542730 -26.556810 39.156680 -21.856410 65.493771 31.405183 7.343403 -62.474013 61.118351 -34.287410 10.316359 -13.920039 9.503757 -0.773167 5.825439 -5.634650 -3.313300 -0.195730 -0.176550 -51.475496 -1.109778 22.568070 30.386717 -8.233848 -3.866910 23.401957 18.086178 7.507632 -2.747787 -7.492755 8.668010 -4.369380 -6.523120 -4.718560 
